# xmcd
#
# Track frame offsets: 
#        150
#        11531
#        22648
#        34352
#        53766
#        68043
#        86224
#        100803
#        120952
#        135346
#        149220
#        162938
#
# Disc length: 2357 seconds
#
# Revision: 0
# Processed by: cddbd v1.5.2PL0 Copyright (c) Steve Scherf et al.
# Submitted via: ExactAudioCopy v1.0b3
#
DISCID=9709330c
DTITLE=夏韶聲 - 不顧一切警告
DYEAR=1984
DGENRE=Blues
TTITLE0=過去是昨天
TTITLE1=舊枕頭
TTITLE2=有錢先有路
TTITLE3=相擁到黎明
TTITLE4=缺氧的天地
TTITLE5=問妳再願否見我
TTITLE6=不顧一切警告
TTITLE7=如果愛妳是錯，我不願對
TTITLE8=愛妳兩百年
TTITLE9=對得妳住
TTITLE10=就哂妳
TTITLE11=Danger Zone
EXTD=
EXTT0=
EXTT1=
EXTT2=
EXTT3=
EXTT4=
EXTT5=
EXTT6=
EXTT7=
EXTT8=
EXTT9=
EXTT10=
EXTT11=
PLAYORDER=
